<svg width="24" height="24" viewBox="0 0 24 24" fill="none" xmlns="http://www.w3.org/2000/svg">
<g id="icon_logo_facebook">
<path id="Union" fill-rule="evenodd" clip-rule="evenodd" d="M19 4H5V16H10V24H14V16H19V4Z" fill="white"/>
<path id="Path" fill-rule="evenodd" clip-rule="evenodd" d="M24 12.1441C24 5.51732 18.6268 0.144104 12 0.144104C5.37321 0.144104 0 5.51732 0 12.1441C0 18.1334 4.3875 23.0979 10.125 23.9989V15.6139H7.07732V12.1441H10.125V9.50035C10.125 6.49339 11.917 4.83107 14.6577 4.83107C15.9707 4.83107 17.3443 5.06571 17.3443 5.06571V8.0191H15.8304C14.3405 8.0191 13.8745 8.94375 13.8745 9.8941V12.1441H17.2023L16.6709 15.6139H13.875V24C19.6125 23.0995 24 18.135 24 12.1441Z" fill="#1877F2"/>
</g>
</svg>
