<svg width="1000" height="200" viewBox="0 0 1000 200" fill="none" xmlns="http://www.w3.org/2000/svg">
<g clip-path="url(#clip0_3_8)">
<path d="M100 200C86.8678 200 73.8642 197.413 61.7316 192.388C49.5991 187.362 38.5752 179.997 29.2893 170.711C20.0035 161.425 12.6375 150.401 7.61204 138.268C2.58657 126.136 -5.51919e-06 113.132 -4.37114e-06 100C-3.22309e-06 86.8678 2.58657 73.8642 7.61205 61.7316C12.6375 49.5991 20.0035 38.5752 29.2893 29.2893C38.5752 20.0035 49.5991 12.6375 61.7317 7.61204C73.8642 2.58657 86.8678 -2.27852e-06 100 -5.56441e-07L100 100L100 200Z" fill="url(#paint0_radial_3_8)"/>
<path d="M900 -4.37114e-06C926.522 -5.53044e-06 951.957 10.5357 970.711 29.2893C989.464 48.0429 1000 73.4783 1000 100C1000 126.522 989.464 151.957 970.711 170.711C951.957 189.464 926.522 200 900 200L900 100L900 -4.37114e-06Z" fill="url(#paint1_radial_3_8)"/>
<rect x="100" width="800" height="200" fill="url(#paint2_linear_3_8)"/>
<path d="M154.336 147V45.616H182V125.872H224.256V147H154.336ZM274.195 149.28C260.92 149.28 250.939 145.835 244.251 138.944C237.664 132.053 234.371 121.768 234.371 108.088C234.371 93.192 237.715 82.6533 244.403 76.472C251.091 70.1893 261.022 67.048 274.195 67.048C282.91 67.048 290.256 68.4667 296.235 71.304C302.214 74.04 306.723 78.448 309.763 84.528C312.904 90.5067 314.475 98.36 314.475 108.088C314.475 121.667 310.979 131.952 303.987 138.944C297.096 145.835 287.166 149.28 274.195 149.28ZM274.195 129.368C277.438 129.368 280.174 128.608 282.403 127.088C284.734 125.568 286.507 123.237 287.723 120.096C288.939 116.853 289.547 112.851 289.547 108.088C289.547 102.413 288.939 98.056 287.723 95.016C286.507 91.8747 284.734 89.696 282.403 88.48C280.174 87.264 277.438 86.656 274.195 86.656C270.851 86.656 268.064 87.3147 265.835 88.632C263.606 89.848 261.934 92.0267 260.819 95.168C259.806 98.208 259.299 102.515 259.299 108.088C259.299 115.485 260.515 120.907 262.947 124.352C265.379 127.696 269.128 129.368 274.195 129.368ZM329.789 147V45.616H357.453V125.872H399.709V147H329.789ZM487.648 94.712V147H462.416V100.488C462.416 98.4613 462.163 96.688 461.656 95.168C461.15 93.5467 460.339 92.2293 459.224 91.216C458.11 90.2027 456.691 89.4427 454.968 88.936C453.246 88.4293 451.168 88.176 448.736 88.176C446.608 88.176 444.683 88.48 442.96 89.088C441.339 89.5947 440.123 90.152 439.312 90.76V147H414.232V76.472C416.056 75.4587 418.59 74.4453 421.832 73.432C425.075 72.4187 428.672 71.5067 432.624 70.696C436.576 69.784 440.579 69.0747 444.632 68.568C448.686 67.96 452.384 67.656 455.728 67.656C462.518 67.656 468.294 68.4667 473.056 70.088C477.819 71.7093 481.416 74.496 483.848 78.448C486.382 82.4 487.648 87.8213 487.648 94.712ZM462.416 82.096C465.558 79.2587 469.459 76.776 474.12 74.648C478.782 72.52 483.696 70.848 488.864 69.632C494.134 68.3147 498.998 67.656 503.456 67.656C510.246 67.656 516.022 68.4667 520.784 70.088C525.547 71.7093 529.144 74.496 531.576 78.448C534.11 82.4 535.376 87.8213 535.376 94.712V147H510.144V100.488C510.144 98.4613 509.891 96.688 509.384 95.168C508.878 93.5467 508.067 92.2293 506.952 91.216C505.838 90.2027 504.419 89.4427 502.696 88.936C500.974 88.4293 498.896 88.176 496.464 88.176C494.336 88.176 492.411 88.48 490.688 89.088C489.067 89.696 487.851 90.4053 487.04 91.216L462.416 82.096ZM590.074 149.28C582.17 149.28 575.178 147.709 569.098 144.568C563.119 141.325 558.458 136.765 555.114 130.888C551.77 124.909 550.098 117.867 550.098 109.76C550.098 96.2827 553.492 85.7947 560.282 78.296C567.071 70.7973 576.85 67.048 589.618 67.048C598.13 67.048 605.02 68.872 610.29 72.52C615.559 76.168 619.46 81.5893 621.994 88.784C624.527 95.9787 625.743 104.795 625.642 115.232H567.578L564.538 99.88H604.362L601.322 108.088C601.22 99.88 600.156 94.1547 598.13 90.912C596.204 87.568 592.962 85.896 588.402 85.896C585.97 85.896 583.74 86.6053 581.714 88.024C579.687 89.3413 578.066 91.52 576.85 94.56C575.735 97.6 575.178 101.704 575.178 106.872C575.178 113.864 576.799 119.235 580.042 122.984C583.386 126.632 588.858 128.456 596.458 128.456C599.194 128.456 601.93 128.152 604.666 127.544C607.402 126.835 609.935 126.024 612.266 125.112C614.596 124.2 616.572 123.491 618.194 122.984V144.264C614.647 145.581 610.594 146.747 606.034 147.76C601.575 148.773 596.255 149.28 590.074 149.28ZM639.235 147V124.352H662.643V147H639.235ZM709.565 149.28C702.775 148.875 696.847 147.304 691.781 144.568C686.815 141.731 682.914 137.576 680.077 132.104C677.341 126.531 675.973 119.437 675.973 110.824C675.973 102.413 676.986 95.4213 679.013 89.848C681.039 84.1733 683.978 79.7147 687.829 76.472C691.679 73.2293 696.391 70.9493 701.965 69.632C707.538 68.2133 713.871 67.504 720.965 67.504C727.754 67.504 733.53 68.3653 738.293 70.088C743.157 71.7093 746.855 74.0907 749.389 77.232C752.023 80.3733 753.341 84.1733 753.341 88.632V147.456C753.341 153.333 752.378 158.4 750.453 162.656C748.629 166.912 745.893 170.459 742.245 173.296C738.698 176.133 734.442 178.211 729.477 179.528C724.511 180.947 718.938 181.656 712.757 181.656C705.562 181.656 699.431 181.149 694.365 180.136C689.298 179.123 685.498 177.907 682.965 176.488V154.296C684.485 155.107 686.765 156.019 689.805 157.032C692.946 158.147 696.442 159.059 700.293 159.768C704.245 160.579 708.146 160.984 711.997 160.984C716.253 160.984 719.597 160.325 722.029 159.008C724.461 157.792 726.183 156.069 727.197 153.84C728.21 151.712 728.717 149.179 728.717 146.24V133.624L733.429 136.664C731.909 139.197 730.085 141.427 727.957 143.352C725.829 145.277 723.295 146.747 720.357 147.76C717.418 148.773 713.821 149.28 709.565 149.28ZM716.709 130.888C719.141 130.888 721.319 130.635 723.245 130.128C725.271 129.621 727.095 128.861 728.717 127.848V94.408C728.717 92.3813 728.159 90.8613 727.045 89.848C726.031 88.8347 724.663 88.176 722.941 87.872C721.218 87.4667 719.445 87.264 717.621 87.264C713.567 87.264 710.325 88.176 707.893 90C705.461 91.7227 703.687 94.256 702.573 97.6C701.458 100.944 700.901 104.845 700.901 109.304C700.901 115.992 702.421 121.261 705.461 125.112C708.501 128.963 712.25 130.888 716.709 130.888ZM800.408 149.28C793.619 148.875 787.691 147.304 782.624 144.568C777.659 141.731 773.758 137.576 770.92 132.104C768.184 126.531 766.816 119.437 766.816 110.824C766.816 102.413 767.83 95.4213 769.856 89.848C771.883 84.1733 774.822 79.7147 778.672 76.472C782.523 73.2293 787.235 70.9493 792.808 69.632C798.382 68.2133 804.715 67.504 811.808 67.504C818.598 67.504 824.374 68.3653 829.136 70.088C834 71.7093 837.699 74.0907 840.232 77.232C842.867 80.3733 844.184 84.1733 844.184 88.632V147.456C844.184 153.333 843.222 158.4 841.296 162.656C839.472 166.912 836.736 170.459 833.088 173.296C829.542 176.133 825.286 178.211 820.32 179.528C815.355 180.947 809.782 181.656 803.6 181.656C796.406 181.656 790.275 181.149 785.208 180.136C780.142 179.123 776.342 177.907 773.808 176.488V154.296C775.328 155.107 777.608 156.019 780.648 157.032C783.79 158.147 787.286 159.059 791.136 159.768C795.088 160.579 798.99 160.984 802.84 160.984C807.096 160.984 810.44 160.325 812.872 159.008C815.304 157.792 817.027 156.069 818.04 153.84C819.054 151.712 819.56 149.179 819.56 146.24V133.624L824.272 136.664C822.752 139.197 820.928 141.427 818.8 143.352C816.672 145.277 814.139 146.747 811.2 147.76C808.262 148.773 804.664 149.28 800.408 149.28ZM807.552 130.888C809.984 130.888 812.163 130.635 814.088 130.128C816.115 129.621 817.939 128.861 819.56 127.848V94.408C819.56 92.3813 819.003 90.8613 817.888 89.848C816.875 88.8347 815.507 88.176 813.784 87.872C812.062 87.4667 810.288 87.264 808.464 87.264C804.411 87.264 801.168 88.176 798.736 90C796.304 91.7227 794.531 94.256 793.416 97.6C792.302 100.944 791.744 104.845 791.744 109.304C791.744 115.992 793.264 121.261 796.304 125.112C799.344 128.963 803.094 130.888 807.552 130.888Z" fill="#C92FFF"/>
</g>
<defs>
<radialGradient id="paint0_radial_3_8" cx="0" cy="0" r="1" gradientUnits="userSpaceOnUse" gradientTransform="translate(100 100) rotate(-180) scale(100)">
<stop stop-color="#303030"/>
<stop offset="1" stop-color="#8F8F8F" stop-opacity="0"/>
</radialGradient>
<radialGradient id="paint1_radial_3_8" cx="0" cy="0" r="1" gradientUnits="userSpaceOnUse" gradientTransform="translate(900 100) scale(100)">
<stop stop-color="#303030"/>
<stop offset="1" stop-color="#8F8F8F" stop-opacity="0"/>
</radialGradient>
<linearGradient id="paint2_linear_3_8" x1="500" y1="0" x2="500" y2="200" gradientUnits="userSpaceOnUse">
<stop stop-color="#8F8F8F" stop-opacity="0"/>
<stop offset="0.494792" stop-color="#303030"/>
<stop offset="1" stop-color="#8F8F8F" stop-opacity="0"/>
</linearGradient>
<clipPath id="clip0_3_8">
<rect width="1000" height="200" fill="white"/>
</clipPath>
</defs>
</svg>
