<svg width="24" height="24" viewBox="0 0 24 24" fill="none" xmlns="http://www.w3.org/2000/svg">
<g id="icon_logo_x">
<path id="Background" fill-rule="evenodd" clip-rule="evenodd" d="M18.2812 0C21.75 0 24 2.25 24 5.71875V18.2812C24 21.75 21.75 24 18.2812 24H5.71875C2.25 24 0 21.75 0 18.2812V5.71875C0 2.25 2.25 0 5.71875 0H18.2812Z" fill="#1E2022"/>
<path id="path1009" d="M4.55642 5L10.3316 12.7218L4.52002 19H5.82807L10.9162 13.5032L15.0271 19H19.4782L13.3779 10.8439L18.7874 5H17.4793L12.7936 10.0623L9.00746 5H4.55642ZM6.47996 5.96341H8.52475L17.5544 18.0366H15.5096L6.47996 5.96341Z" fill="white"/>
</g>
</svg>
